<?xml version="1.0" encoding="UTF-8"?>
<svg id="Ebene_2" data-name="Ebene 2" xmlns="http://www.w3.org/2000/svg" viewBox="0 0 427.26 458.94">
  <g id="Ebene_1-2" data-name="Ebene 1">
    <g>
      <path d="M114.12,223.37c1.91-15.52,4.06-30.52,1.36-46.09-.99-5.7-9.66-3.28-8.68,2.39,2.53,14.63.12,29.14-1.68,43.7-.71,5.73,8.3,5.68,9,0h0Z"/>
      <path d="M279.92,106.26c1.72,27.9,3.38,55.81,4.55,83.74.59,14.06,1.21,28.17.88,42.24-.08,3.3-.21,6.61-.6,9.89,0-.03.13-.53-.1.58-.1.49-.18.98-.29,1.46-.1.44-.63,2.4-.4,1.46-.07.29-.47.37.21-.06-.56.35-1.17.61-1.71.98-3.63,2.45-4.97,6.67-5.83,10.77-1.19,5.65,7.49,8.07,8.68,2.39.24-1.12.54-2.22.84-3.33.11-.4.27-.78.41-1.17.1-.28-.42,1.04.09-.15.11-.26.28-.5.42-.73.59-.98-.17.59-.15.17.03-.63,1.18-.86.03-.14,1.9-1.2,3.61-2.15,4.78-4.21,2.39-4.22,2.33-9.96,2.53-14.64.54-12.54,0-25.14-.46-37.67-1.14-30.55-2.99-61.08-4.87-91.59-.35-5.75-9.36-5.79-9,0h0Z"/>
      <path d="M288.79,109.28c.1-10.2-9.36-17.09-19.08-13.94-10.78,3.49-14.93,16.03-17.62,25.86-6.72,24.55-3.86,50.39-.95,75.28.67,5.68,9.67,5.75,9,0-2.12-18.09-4.21-36.4-2.6-54.62.81-9.14,2.69-18.29,6.02-26.86,1.45-3.73,3.41-8.02,6.97-10.18,4.22-2.56,9.31-.96,9.26,4.46-.06,5.79,8.94,5.8,9,0h0Z"/>
      <path d="M258.86,129.47c1.33-11.68-1.29-25.29-12.22-31.8s-22.94-1.52-27.94,9.38c-2.43,5.3-3.31,11.07-3.91,16.82-.89,8.52-1.43,17.08-1.78,25.64-.69,17.13-.36,34.28.88,51.37.42,5.74,9.42,5.79,9,0-1.88-25.95-2.06-52.47,1.04-78.34.94-7.82,4.05-21.03,14.73-18.51s12.23,16.3,11.19,25.43c-.66,5.74,8.35,5.7,9,0h0Z"/>
      <path d="M224.4,117.79c-.83-10.26-3.93-22.82-16.32-23.76s-20.56,9.76-23.56,20.58c-3.83,13.81-4.85,29.03-5.56,43.28-.76,15.27-.28,30.55,1.31,45.75.6,5.7,9.6,5.76,9,0-2.38-22.8-2.23-45.83.73-68.56,1.18-9.07,1.7-22.68,9.22-29.1,3.29-2.81,8.78-4.52,12.28-1.14,3.25,3.14,3.57,8.73,3.91,12.94.46,5.73,9.47,5.78,9,0h0Z"/>
      <path d="M190.96,119.4c-1.52-10.09-11.89-19.93-21.83-21.73-12.83-2.33-21.32,9.62-24.91,20.29-4.58,13.6-4.66,29.03-4.46,43.21.11,7.8.55,15.49,1.37,23.25s1.05,15.4-1.91,22.96c-2.11,5.4,6.59,7.74,8.68,2.39,4.49-11.5,2.08-22.85,1.29-34.73-.84-12.54-.8-25.35.43-37.86.94-9.55,2.67-24.12,11.97-29.52,8.52-4.95,19.48,6.14,20.69,14.13.86,5.71,9.53,3.28,8.68-2.39h0Z"/>
      <path d="M115.68,178.34c-.89-4.62-2.06-10.75.66-14.99,3.92-6.12,9.29-1.48,11.75,3.09,2.75,5.1,10.52.56,7.77-4.54-4.68-8.67-14.85-14.38-23.57-7.34-7.9,6.38-7.01,17.22-5.29,26.16,1.09,5.68,9.77,3.28,8.68-2.39h0Z"/>
      <path d="M285.5,242.07c-.82,6.05-3.64,10.41-8.6,13.9s-11.65,7.3-17.61,9.17c-7.58,2.38-16.31,2.14-24.17,2.8s-16.38,1.34-24.59,1.8c-16.81.94-33.81,1.15-50.52-1.15-7.17-.99-14.49-2.28-21.39-4.52-5.52-1.79-9.43-5.29-13.18-9.61-5.51-6.35-10.87-13.48-11.26-22.18-.31-6.77.56-13.51,1.41-20.22.73-5.73-8.28-5.68-9,0-.88,6.93-1.73,13.87-1.39,20.87.39,7.95,3.84,14.94,8.53,21.25,4.21,5.68,8.93,11.62,15.07,15.31s12.96,4.91,19.57,6.21c18.89,3.73,38.24,4.15,57.42,3.27,9.47-.44,18.93-1.18,28.38-1.97,8.75-.73,18.17-.62,26.68-2.95,7.59-2.08,15.85-6.76,22.14-11.46,6.07-4.54,10.16-10.55,11.19-18.14.76-5.66-7.91-8.11-8.68-2.39h0Z"/>
      <path d="M139.76,204.43c.33-.88,1.64,2.01.42.09-.42-.66-1.09-1.15-1.49-1.84-1.33-2.3-1.28-5.27-1.25-7.84.06-6.04,1.12-12.02,1.33-18.06.33-9.65-2.92-17.55-10.62-23.5-4.53-3.5-10.94,2.82-6.36,6.36,6.35,4.91,8.31,10.17,7.95,18.09s-2.23,15.91-.82,23.77c.84,4.65,3.79,9.74,8.18,11.95,5.67,2.85,9.5-1.72,11.35-6.62,2.05-5.43-6.65-7.77-8.68-2.39h0Z"/>
    </g>
    <g>
      <path d="M335,352.1c6.34-86.03,12.67-172.07,19.01-258.1,1.79-24.25,3.57-48.5,5.36-72.75.43-5.78-8.58-5.75-9,0-6.34,86.03-12.67,172.07-19.01,258.1-1.79,24.25-3.57,48.5-5.36,72.75-.43,5.78,8.58,5.75,9,0h0Z"/>
      <path d="M357.59,17.3c-72.84,2.55-145.83-.06-218.29-7.95-20.72-2.26-41.38-4.95-61.99-8.07-5.67-.86-8.11,7.82-2.39,8.68,72.79,10.99,146.32,16.86,219.94,17.28,20.92.12,41.83-.21,62.73-.94,5.78-.2,5.8-9.2,0-9h0Z"/>
      <path d="M72.62,4.33c-6.95,107.39-11.94,214.9-14.93,322.47-.85,30.54-1.53,61.09-2.06,91.65-.1,5.79,8.9,5.79,9,0,1.87-107.6,5.7-215.16,11.54-322.61,1.66-30.51,3.48-61.01,5.45-91.51.37-5.78-8.63-5.76-9,0h0Z"/>
      <path d="M62.97,420.9c2.32-13.03-6.65-24.25-18.77-28.22-13.35-4.37-26.72,2.86-34.62,13.57-7.5,10.17-13.45,27.34-6.51,39.19,8.04,13.74,27.13,8.86,39.74,6.4,63.11-12.32,119.3-45.4,178.46-68.95,33.28-13.25,67.99-23.57,103.99-24.85,5.77-.21,5.8-9.21,0-9-55.92,2-107.62,24.68-157.79,47.45-25.89,11.75-51.75,23.69-78.58,33.15-13.07,4.61-26.36,8.63-39.87,11.7-6.74,1.53-13.56,2.92-20.41,3.85-6.12.84-14.79,1.63-18.11-4.91-3.21-6.34-.63-15.27,2.07-21.35,2.84-6.39,7.32-12.34,13.5-15.81s13.17-3.63,19.4-.11c5.47,3.09,10,8.93,8.83,15.5-1.01,5.66,7.66,8.09,8.68,2.39h0Z"/>
      <path d="M65.64,458.84c72.44-14.3,134.9-57.92,206.96-73.48,20.55-4.44,41.54-6.23,62.51-4.27,5.76.54,5.73-8.47,0-9-75.97-7.08-143.71,33.8-211.99,60.14-19.47,7.51-39.37,13.89-59.87,17.94-5.68,1.12-3.27,9.8,2.39,8.68h0Z"/>
      <path d="M334.12,380.63c18.36,4.03,37.69,3.08,55.42-3.28,16.84-6.04,34.19-15.79,36.79-35.05,2.03-15.06,2-36.28-13.27-44.69s-35.42-2.66-49.03,5.89c-17.65,11.08-28.83,29.3-35.2,48.76-1.8,5.52,6.88,7.88,8.68,2.39,4.69-14.34,12.18-27.92,23.68-37.92,10.74-9.35,26.52-16.19,40.98-13.47,16.32,3.07,16.43,20.3,15.67,33.66-.47,8.3-2.81,15.09-9.42,20.45-5.94,4.81-13.34,8.4-20.48,11.02-16.46,6.06-34.3,7.33-51.43,3.57-5.64-1.24-8.06,7.44-2.39,8.68h0Z"/>
      <path d="M325.79,358c2.07.05,4.13.06,6.2.01,2.35-.05,4.61-2.03,4.5-4.5s-1.98-4.55-4.5-4.5c-2.07.04-4.13.04-6.2-.01-2.35-.06-4.61,2.11-4.5,4.5s1.98,4.44,4.5,4.5h0Z"/>
    </g>
  </g>
</svg>